<svg  class="soc"
 xmlns="http://www.w3.org/2000/svg"
 xmlns:xlink="http://www.w3.org/1999/xlink"
 width="17px" height="17px">
<path fill-rule="evenodd"  opacity="0.502" fill="rgb(255, 255, 255)"
 d="M13.282,0.354 L3.848,0.354 C2.209,0.354 0.876,1.733 0.876,3.428 L0.876,6.676 L0.876,13.189 C0.876,14.885 2.209,16.265 3.848,16.265 L13.282,16.265 C14.920,16.265 16.254,14.885 16.254,13.189 L16.254,6.676 L16.254,3.428 C16.254,1.733 14.920,0.354 13.282,0.354 ZM14.134,2.187 L14.474,2.187 L14.474,2.537 L14.474,4.883 L11.876,4.892 L11.867,2.195 L14.134,2.187 ZM6.370,6.676 C6.862,5.971 7.662,5.509 8.565,5.509 C9.468,5.509 10.267,5.971 10.759,6.676 C11.080,7.137 11.272,7.700 11.272,8.310 C11.272,9.853 10.056,11.110 8.565,11.110 C7.072,11.110 5.858,9.853 5.858,8.310 C5.858,7.700 6.050,7.137 6.370,6.676 ZM14.755,13.189 C14.755,14.031 14.094,14.713 13.282,14.713 L3.848,14.713 C3.035,14.713 2.374,14.031 2.374,13.189 L2.374,6.676 L4.669,6.676 C4.471,7.181 4.360,7.732 4.360,8.310 C4.360,10.707 6.246,12.660 8.565,12.660 C10.883,12.660 12.770,10.707 12.770,8.310 C12.770,7.732 12.657,7.181 12.459,6.676 L14.755,6.676 L14.755,13.189 Z"/>
</svg>