<svg  class="soc"
 xmlns="http://www.w3.org/2000/svg"
 xmlns:xlink="http://www.w3.org/1999/xlink"
 width="18px" height="15px">
<path fill-rule="evenodd"  fill="#939495"
 d="M17.156,2.207 C16.534,2.492 15.317,2.609 14.747,2.645 C15.780,2.067 16.312,1.386 16.562,0.576 C15.914,0.974 15.111,1.147 14.347,1.304 C13.735,0.629 12.948,0.323 11.983,0.323 C10.131,0.323 8.628,1.875 8.628,3.791 C8.628,4.063 8.658,4.327 8.715,4.582 C5.927,4.438 3.455,3.056 1.800,0.957 C1.511,1.470 1.346,2.065 1.346,2.702 C1.346,3.905 2.676,5.081 3.576,5.703 C3.026,5.685 1.771,5.414 1.319,5.154 C1.318,5.170 1.318,5.184 1.318,5.199 C1.318,6.879 3.184,8.310 4.720,8.629 C4.438,8.708 3.432,8.722 3.126,8.722 C2.909,8.722 2.699,8.700 2.494,8.660 C2.922,10.038 4.161,11.041 5.628,11.069 C4.480,11.999 3.034,12.554 1.462,12.554 C1.191,12.554 0.924,12.537 0.662,12.506 C2.147,13.490 3.910,14.064 5.804,14.064 C11.976,14.064 15.350,8.778 15.350,4.194 C15.350,4.044 15.404,4.151 15.397,4.003 C16.053,3.514 16.707,2.903 17.156,2.207 Z"/>
</svg>