<svg  class="soc"
 xmlns="http://www.w3.org/2000/svg"
 xmlns:xlink="http://www.w3.org/1999/xlink"
 width="19px" height="12px">
<path fill-rule="evenodd"  opacity="0.502" fill="rgb(255, 255, 255)"
 d="M9.529,11.624 L10.615,11.624 C10.615,11.624 10.943,11.586 11.111,11.396 C11.265,11.223 11.260,10.895 11.260,10.895 C11.260,10.895 11.239,9.364 11.915,9.138 C12.581,8.915 13.438,10.619 14.345,11.273 C15.031,11.769 15.552,11.660 15.552,11.660 L17.978,11.624 C17.978,11.624 19.247,11.542 18.645,10.493 C18.596,10.408 18.295,9.717 16.841,8.299 C15.320,6.815 15.524,7.055 17.356,4.487 C18.473,2.922 18.919,1.967 18.779,1.559 C18.646,1.170 17.826,1.272 17.826,1.272 L15.094,1.290 C15.094,1.290 14.891,1.261 14.741,1.355 C14.595,1.448 14.500,1.664 14.500,1.664 C14.500,1.664 14.068,2.874 13.491,3.903 C12.275,6.074 11.789,6.189 11.590,6.054 C11.127,5.740 11.243,4.793 11.243,4.118 C11.243,2.014 11.547,1.136 10.652,0.909 C10.355,0.833 10.136,0.784 9.377,0.775 C8.402,0.766 7.577,0.779 7.110,1.020 C6.800,1.179 6.560,1.537 6.706,1.556 C6.887,1.581 7.295,1.672 7.512,1.983 C7.792,2.384 7.782,3.282 7.782,3.282 C7.782,3.282 7.943,5.760 7.406,6.067 C7.038,6.278 6.533,5.847 5.449,3.878 C4.893,2.868 4.474,1.752 4.474,1.752 C4.474,1.752 4.393,1.544 4.249,1.432 C4.074,1.297 3.829,1.255 3.829,1.255 L1.234,1.272 C1.234,1.272 0.844,1.283 0.701,1.462 C0.573,1.621 0.691,1.949 0.691,1.949 C0.691,1.949 2.722,6.947 5.024,9.466 C7.134,11.775 9.529,11.624 9.529,11.624 Z"/>
</svg>