<svg class="soc"
 xmlns="http://www.w3.org/2000/svg"
 xmlns:xlink="http://www.w3.org/1999/xlink"
 width="18px" height="17px">
<path fill-rule="evenodd"  opacity="0.502" fill="rgb(255, 255, 255)"
 d="M14.908,16.720 L3.808,16.720 C2.105,16.720 0.725,15.335 0.725,13.628 L0.725,11.774 C0.725,10.066 2.105,8.682 3.808,8.682 L14.908,8.682 C16.611,8.682 17.992,10.066 17.992,11.774 L17.992,13.628 C17.992,15.335 16.611,16.720 14.908,16.720 ZM5.007,9.922 L2.576,9.922 L2.576,11.114 L3.208,11.114 L3.208,15.453 L4.448,15.453 L4.448,11.114 L5.007,11.114 L5.007,9.922 ZM8.734,11.161 L7.473,11.161 L7.473,14.012 C7.473,14.372 7.464,14.586 7.445,14.653 C7.426,14.719 7.290,14.752 7.191,14.752 C7.098,14.752 6.925,14.720 6.904,14.656 C6.883,14.592 6.873,14.388 6.873,14.045 L6.873,11.123 L5.650,11.123 L5.650,14.018 C5.650,14.397 5.658,14.650 5.674,14.777 C5.689,14.904 5.728,15.027 5.791,15.144 C5.854,15.261 5.952,15.355 6.084,15.426 C6.217,15.497 6.384,15.533 6.585,15.533 C6.761,15.533 6.918,15.496 7.053,15.421 C7.189,15.347 7.303,15.235 7.396,15.086 L7.373,15.453 L8.734,15.453 L8.734,11.161 ZM12.491,12.084 C12.491,11.758 12.484,11.855 12.469,11.755 C12.455,11.655 12.412,11.553 12.342,11.449 C12.271,11.346 12.168,11.265 12.034,11.207 C11.899,11.149 11.740,11.121 11.557,11.121 C11.398,11.121 11.250,11.152 11.115,11.216 C10.979,11.279 10.701,11.375 10.591,11.504 L10.591,9.922 L9.369,9.922 L9.369,15.453 L10.505,15.453 L10.591,15.120 C10.704,15.258 10.982,15.361 11.118,15.429 C11.254,15.498 11.400,15.533 11.557,15.533 C11.775,15.533 11.964,15.474 12.123,15.358 C12.282,15.242 12.383,15.105 12.426,14.946 C12.469,14.788 12.491,14.548 12.491,14.224 L12.491,12.084 ZM16.039,13.613 L14.770,13.613 L14.770,14.194 C14.770,14.413 14.753,14.561 14.719,14.637 C14.685,14.714 14.617,14.752 14.515,14.752 C14.434,14.752 14.379,14.724 14.350,14.665 C14.321,14.608 14.307,14.480 14.307,14.281 L14.307,13.018 L16.039,13.018 L16.039,12.743 C16.039,12.315 15.990,12.139 15.892,11.903 C15.793,11.668 15.622,11.478 15.378,11.335 C15.134,11.192 14.825,11.121 14.449,11.121 C14.142,11.121 13.948,11.180 13.711,11.298 C13.475,11.417 13.267,11.587 13.163,11.809 C13.059,12.032 13.007,12.027 13.007,12.412 L13.007,13.852 C13.007,14.179 13.030,14.429 13.077,14.601 C13.123,14.773 13.206,14.930 13.327,15.072 C13.447,15.215 13.654,15.328 13.870,15.410 C14.087,15.492 14.259,15.533 14.542,15.533 C14.833,15.533 15.076,15.491 15.269,15.408 C15.462,15.325 15.622,15.201 15.748,15.034 C15.873,14.868 15.953,14.712 15.988,14.566 C16.022,14.420 16.039,14.210 16.039,13.938 L16.039,13.613 ZM14.307,12.133 C14.307,11.885 14.318,12.042 14.340,11.986 C14.362,11.929 14.419,11.901 14.512,11.901 C14.587,11.901 14.637,11.934 14.661,12.001 C14.686,12.067 14.698,11.905 14.698,12.133 L14.698,12.455 L14.307,12.455 L14.307,12.133 ZM10.796,14.752 C10.715,14.752 10.660,14.719 10.632,14.653 C10.605,14.586 10.591,14.435 10.591,14.198 L10.591,12.143 C10.591,11.898 10.603,12.054 10.628,11.992 C10.652,11.932 10.705,11.901 10.786,11.901 C10.870,11.901 11.081,11.936 11.110,12.006 C11.138,12.076 11.153,11.915 11.153,12.143 L11.153,14.155 C11.153,14.415 11.140,14.581 11.115,14.649 C11.089,14.718 10.880,14.752 10.796,14.752 ZM13.665,6.901 C13.539,7.104 13.383,7.256 13.198,7.357 C13.013,7.458 12.799,7.432 12.558,7.432 C12.285,7.432 11.980,7.461 11.799,7.364 C11.619,7.268 11.486,7.139 11.400,6.979 C11.314,6.819 11.260,6.653 11.239,6.479 C11.218,6.305 11.208,5.960 11.208,5.444 L11.208,1.275 L13.032,1.275 L13.032,5.480 C13.032,5.948 13.047,6.226 13.075,6.313 C13.104,6.401 13.259,6.445 13.385,6.445 C13.521,6.445 13.601,6.399 13.627,6.309 C13.652,6.219 13.665,5.927 13.665,5.435 L13.665,1.275 L15.490,1.275 L15.490,7.400 L13.634,7.400 L13.665,6.901 ZM10.128,6.868 C9.950,7.087 9.722,7.249 9.444,7.353 C9.165,7.456 8.999,7.509 8.638,7.509 C8.235,7.509 7.662,7.464 7.382,7.375 C7.102,7.286 6.884,7.152 6.729,6.973 C6.574,6.793 6.463,6.575 6.397,6.321 C6.331,6.065 6.298,5.682 6.298,5.172 L6.298,3.632 C6.298,3.074 6.358,2.638 6.478,2.324 C6.599,2.010 6.815,1.758 7.129,1.567 C7.442,1.377 8.074,1.282 8.561,1.282 C8.971,1.282 9.168,1.343 9.462,1.465 C9.755,1.588 9.982,1.747 10.141,1.944 C10.301,2.140 10.410,2.342 10.469,2.550 C10.528,2.758 10.557,3.076 10.557,3.501 L10.557,4.973 C10.557,5.513 10.530,5.910 10.476,6.161 C10.422,6.414 10.306,6.649 10.128,6.868 ZM8.732,3.125 C8.732,2.817 8.716,2.624 8.683,2.544 C8.650,2.464 8.502,2.423 8.393,2.423 C8.285,2.423 8.213,2.464 8.177,2.544 C8.140,2.624 8.122,2.817 8.122,3.125 L8.122,5.529 C8.122,5.813 8.140,5.998 8.177,6.084 C8.213,6.170 8.283,6.213 8.389,6.213 C8.497,6.213 8.646,6.174 8.680,6.095 C8.715,6.016 8.732,5.847 8.732,5.588 L8.732,3.125 ZM4.964,7.400 L3.164,7.400 L3.164,4.747 L1.827,0.030 L3.574,0.030 C3.847,1.461 4.001,2.694 4.036,3.189 C4.141,2.407 4.318,1.406 4.565,0.030 L6.312,-0.009 L4.964,4.747 L4.964,7.400 Z"/>
</svg>